<?xml version="1.0" encoding="UTF-8" standalone="no"?>
<!-- Created with Inkscape (http://www.inkscape.org/) -->

<svg
   width="297mm"
   height="210mm"
   viewBox="0 0 297 210"
   version="1.1"
   id="svg1"
   inkscape:version="1.4.2 (1:1.4.2+202505120737+ebf0e940d0)"
   sodipodi:docname="webseite.svg"
   xmlns:inkscape="http://www.inkscape.org/namespaces/inkscape"
   xmlns:sodipodi="http://sodipodi.sourceforge.net/DTD/sodipodi-0.dtd"
   xmlns="http://www.w3.org/2000/svg"
   xmlns:svg="http://www.w3.org/2000/svg">
  <sodipodi:namedview
     id="namedview1"
     pagecolor="#ffffff"
     bordercolor="#666666"
     borderopacity="1.0"
     inkscape:showpageshadow="2"
     inkscape:pageopacity="0.0"
     inkscape:pagecheckerboard="0"
     inkscape:deskcolor="#d1d1d1"
     inkscape:document-units="mm"
     inkscape:zoom="0.5550014"
     inkscape:cx="535.13378"
     inkscape:cy="90.990761"
     inkscape:window-width="1534"
     inkscape:window-height="831"
     inkscape:window-x="66"
     inkscape:window-y="32"
     inkscape:window-maximized="1"
     inkscape:current-layer="layer1" />
  <defs
     id="defs1" />
  <g
     inkscape:label="Ebene 1"
     inkscape:groupmode="layer"
     id="layer1">
    <rect
       style="fill:#5d7300;fill-opacity:1;stroke-width:2.79553"
       id="rect1-7"
       width="296.99997"
       height="18.592299"
       x="0.29393661"
       y="-0.11956147" />
    <path
       id="rect1"
       style="fill:#445500;stroke-width:2.79553"
       d="m 0,0.05942773 v 0.7627442 a 12.472546,12.472546 0 0 1 0.6475057,-0.7627442 z m 19.005558,0 A 12.472546,12.472546 0 0 1 22.298897,8.5038726 12.472546,12.472546 0 0 1 17.077511,18.65209 H 280.61026 a 12.472546,12.472546 0 0 1 -0.1974,-2.210718 12.472546,12.472546 0 0 1 12.47262,-12.4726225 12.472546,12.472546 0 0 1 4.11448,0.698149 V 0.05942773 Z M 0,16.185057 V 18.65209 H 2.5755534 A 12.472546,12.472546 0 0 1 0,16.185057 Z" />
    <rect
       style="fill:#2a3200;fill-opacity:1;stroke-width:1.63815"
       id="rect2"
       width="296.04657"
       height="2.4554977"
       x="0.95345104"
       y="207.78046" />
    <path
       style="fill:#ffffff;stroke-width:0.115202"
       d="M 10.860997,15.353373 C 10.758773,15.310431 10.62223,15.256278 10.557568,15.233034 10.351056,15.158799 9.5401219,14.755944 9.2037375,14.56048 8.7827762,14.315872 8.3399701,14.009819 8.0963168,13.795072 7.9467527,13.663252 7.9027113,13.605303 7.9027113,13.54033 c 0,-0.241561 0.2889269,-0.939052 0.5321804,-1.284724 0.2968585,-0.421846 0.8153456,-1.002822 1.5442386,-1.730348 1.2807277,-1.2783257 1.8998407,-1.9674444 2.3647407,-2.6321264 0.262271,-0.374979 0.607867,-1.0513117 0.728239,-1.4251697 0.08873,-0.275573 0.191324,-0.7078777 0.18813,-0.7927007 -8.4e-4,-0.02131 -0.397708,0.352645 -0.88201,0.8310227 l -0.880551,0.8697787 -8.41e-4,0.326252 -8.4e-4,0.326253 -0.224581,0.258251 c -0.123518,0.142038 -0.304248,0.339387 -0.401617,0.4385517 l -0.177039,0.180302 -0.0025,-0.5248667 -0.0025,-0.524866 -1.16102,-1.1364557 C 8.8882038,6.0944329 8.3611995,5.5883132 8.3556208,5.5947712 c -0.00558,0.0065 -0.093338,0.133211 -0.1950213,0.281673 -0.3679806,0.5372747 -0.7225812,1.1353367 -0.7225812,1.2186917 0,0.01979 0.3107638,0.3407847 0.6905863,0.7133147 1.3309231,1.3053707 1.8340951,1.8044817 1.8424194,1.8275507 0.00462,0.0128 -0.1152013,0.148057 -0.2662653,0.300577 L 9.4300967,10.213888 8.2640024,9.0660983 C 7.5414651,8.3549226 7.0872014,7.9292646 7.0697925,7.9471096 c -0.031757,0.03255 -0.1376172,0.418784 -0.208445,0.7605157 -0.025995,0.125421 -0.055129,0.437675 -0.064741,0.693897 -0.018692,0.498182 0.017894,0.8123967 0.1517863,1.3036907 0.1195383,0.43862 0.4440146,1.105879 0.6802914,1.39896 0.1056615,0.131064 0.1065137,0.143154 0.021461,0.304302 -0.036656,0.06945 -0.1106513,0.253221 -0.1644328,0.408382 L 7.3879271,13.098966 7.2010966,12.876842 C 6.517992,12.064622 6.1134703,11.107452 6.0108527,10.060378 5.8051764,7.9617246 6.9155439,5.6687192 9.2470985,3.3772517 9.6947627,2.9372849 10.537063,2.1858707 10.916308,1.8881544 l 0.179218,-0.1406907 0.218137,0.1706451 c 0.823673,0.6443477 1.560626,1.3394144 2.420679,2.2830947 0.155856,0.171011 0.267708,1.0219967 0.210205,1.5992677 -0.125833,1.2632147 -0.709351,2.3874004 -1.946488,3.7500361 -0.127301,0.140214 -0.667616,0.7003217 -1.2007,1.2446827 -1.1642785,1.188909 -1.5797069,1.669831 -1.8653702,2.15945 -0.1999467,0.342703 -0.2058406,0.314726 0.1143836,0.542977 0.1539955,0.109764 0.2711552,0.213413 0.2603575,0.23033 -0.011039,0.01729 -0.00453,0.02171 0.014924,0.01008 0.01901,-0.01137 0.1485532,0.04777 0.28788,0.131442 0.1393272,0.08367 0.2652795,0.148248 0.2798932,0.143513 0.048175,-0.01561 5.4477219,-5.2560067 5.4475359,-5.2869727 -3.4e-4,-0.06767 -0.184877,-0.6837197 -0.279412,-0.9331217 -0.159249,-0.420125 -0.416343,-0.9829107 -0.556679,-1.2185837 l -0.128473,-0.215752 0.0473,-0.166073 c 0.05089,-0.1787037 0.10722,-0.5741507 0.119776,-0.8408997 l 0.0078,-0.164958 0.269986,0.392256 c 0.95414,1.3862437 1.449228,2.9041754 1.449228,4.4433118 0,0.753193 -0.107368,1.320969 -0.381548,2.017684 -0.153757,0.390707 -0.218372,0.520788 -0.417149,0.839787 -0.535998,0.860173 -1.301755,1.533254 -2.252519,1.97991 -0.470159,0.220875 -0.823149,0.340249 -1.332003,0.450461 -0.605968,0.131244 -0.794006,0.139216 -1.022235,0.04334 z m 2.28565,-2.241273 c 1.895655,-1.829431 2.248396,-2.182917 2.264679,-2.26947 0.01745,-0.09276 0.02825,-0.205977 0.06463,-0.677279 0.01208,-0.156538 -0.03629,-0.9603927 -0.06194,-1.0295007 -0.0094,-0.0252 -0.09981,0.04313 -0.247161,0.186729 -0.127821,0.124564 -0.232402,0.236465 -0.232402,0.248669 0,0.0122 0.06343,0.08454 0.140961,0.160751 0.11931,0.117283 0.134038,0.144127 0.09589,0.174782 -0.03696,0.0297 -0.06881,0.01169 -0.176978,-0.100044 -0.146312,-0.151144 -0.168707,-0.158765 -0.252017,-0.08577 -0.05556,0.04869 -0.05237,0.05566 0.08914,0.194763 0.11485,0.1128967 0.138611,0.1521627 0.10927,0.1805707 -0.02934,0.02841 -0.06701,0.0083 -0.173228,-0.09268 -0.118727,-0.1128187 -0.143937,-0.1247267 -0.20122,-0.09504 -0.03602,0.01867 -0.06549,0.05058 -0.06549,0.07093 0,0.02035 0.138997,0.1710717 0.308884,0.3349417 0.293203,0.282819 0.306268,0.300744 0.257357,0.353072 -0.04925,0.05269 -0.06551,0.04164 -0.368029,-0.250273 -0.318265,-0.307102 -0.38737,-0.341652 -0.436318,-0.218146 -0.0139,0.03508 0.0239,0.09015 0.125942,0.183504 0.119609,0.109418 0.139088,0.141224 0.108406,0.177019 -0.03163,0.0369 -0.06061,0.0215 -0.187817,-0.09981 -0.122084,-0.116425 -0.160161,-0.137492 -0.202158,-0.111843 -0.08476,0.05177 -0.07682,0.08016 0.06623,0.237018 0.183995,0.201748 0.117495,0.243884 -0.0831,0.05265 l -0.147293,-0.140421 -0.06853,0.06635 -0.06853,0.06635 0.152515,0.149922 c 0.122771,0.120685 0.144873,0.15727 0.113329,0.1876 -0.0315,0.0303 -0.06684,0.0094 -0.180309,-0.106675 -0.140673,-0.143892 -0.208758,-0.161409 -0.247494,-0.06367 -0.0133,0.03355 0.05304,0.118562 0.217539,0.278773 0.13017,0.126776 0.236672,0.238881 0.236672,0.249123 0,0.01024 -0.02352,0.02736 -0.05226,0.03804 -0.0378,0.01404 -0.119212,-0.04502 -0.294212,-0.213468 l -0.241948,-0.232885 -0.06875,0.06657 -0.06875,0.06657 0.146367,0.143878 c 0.114881,0.112927 0.138267,0.151721 0.108714,0.180335 -0.02955,0.02862 -0.06962,0.006 -0.186255,-0.105259 l -0.148601,-0.141715 -0.06853,0.06635 -0.06853,0.06635 0.149096,0.146562 c 0.100493,0.09878 0.137089,0.153749 0.11226,0.168606 -0.02214,0.01324 -0.08869,-0.02724 -0.166771,-0.101426 -0.145802,-0.138546 -0.173911,-0.146492 -0.24588,-0.06949 -0.04744,0.05076 -0.03559,0.06819 0.198809,0.292428 0.137092,0.131146 0.277089,0.27559 0.311105,0.320987 0.05464,0.07292 0.05649,0.08772 0.01595,0.12698 -0.04055,0.03926 -0.08126,0.0095 -0.349175,-0.254994 -0.1668,-0.16469 -0.316776,-0.299436 -0.333278,-0.299436 -0.0165,0 -0.05594,0.02272 -0.08763,0.0505 -0.05556,0.04869 -0.05236,0.05567 0.08936,0.194979 0.130669,0.128449 0.141824,0.149479 0.100504,0.189485 -0.04132,0.04001 -0.05941,0.03002 -0.163034,-0.09001 -0.128321,-0.148632 -0.158528,-0.159109 -0.243664,-0.08451 -0.05556,0.04869 -0.05237,0.05566 0.08914,0.194764 0.114848,0.112896 0.138609,0.152161 0.109268,0.18057 -0.02934,0.02841 -0.06728,0.008 -0.174464,-0.09385 -0.139249,-0.132319 -0.215147,-0.14576 -0.255018,-0.04516 -0.01325,0.03344 0.05113,0.116773 0.209795,0.271567 0.185473,0.180948 0.220097,0.228751 0.182449,0.251906 -0.02556,0.01572 -0.05579,0.02878 -0.06719,0.02904 -0.01139,2.26e-4 -0.111483,-0.09582 -0.222412,-0.213503 -0.14073,-0.149293 -0.216601,-0.208421 -0.251026,-0.195631 -0.103413,0.03842 -0.08934,0.112103 0.04713,0.246734 0.105196,0.103779 0.126273,0.140512 0.09693,0.16892 -0.02934,0.02841 -0.0699,0.0054 -0.186497,-0.105796 -0.143671,-0.137012 -0.150872,-0.140102 -0.201157,-0.0863 -0.073,0.0781 -0.06824,0.09291 0.07537,0.234592 0.07663,0.07559 0.118435,0.14004 0.104755,0.161471 -0.01534,0.02404 -0.07211,-0.01139 -0.17414,-0.108692 l -0.151373,-0.144359 -0.06814,0.06597 -0.06814,0.06597 0.300616,0.296252 c 0.16534,0.162939 0.300616,0.317263 0.300616,0.342944 0,0.112087 -0.09764,0.05559 -0.3948,-0.228449 l -0.317359,-0.303346 -0.06884,0.06665 -0.06884,0.06665 0.153837,0.151223 c 0.125553,0.123418 0.145302,0.156338 0.107406,0.179042 -0.0348,0.02085 -0.08333,-0.0074 -0.193726,-0.112603 l -0.147293,-0.140421 -0.06853,0.06635 -0.06853,0.06635 0.147691,0.145182 c 0.122795,0.120707 0.140305,0.151114 0.103877,0.180386 -0.03532,0.02838 -0.06919,0.0086 -0.174665,-0.102238 -0.131124,-0.137732 -0.2001,-0.153957 -0.238849,-0.05619 -0.01323,0.03339 0.04951,0.115131 0.203806,0.265529 0.198469,0.193454 0.217444,0.221695 0.172963,0.257438 -0.04362,0.03505 -0.07922,0.01201 -0.280503,-0.181578 l -0.230541,-0.221725 -0.06873,0.06654 -0.06873,0.06654 0.146367,0.143879 c 0.11488,0.112927 0.138267,0.151721 0.108713,0.180335 -0.02955,0.02862 -0.06962,0.006 -0.186254,-0.105257 l -0.148601,-0.141716 -0.06853,0.06635 -0.06853,0.06635 0.148532,0.146007 c 0.108925,0.107074 0.136536,0.150464 0.103543,0.162723 -0.02686,0.01 -0.09276,-0.03066 -0.163576,-0.100871 -0.133518,-0.132389 -0.154814,-0.138408 -0.236492,-0.06684 -0.05573,0.04883 -0.04599,0.06233 0.257825,0.357494 0.299483,0.290955 0.312976,0.309425 0.262075,0.358708 -0.0509,0.04928 -0.06991,0.03629 -0.369108,-0.252421 l -0.315445,-0.304379 -0.132993,0.124981 -0.1329948,0.124984 0.2281298,0.227327 c 0.125471,0.125029 0.330926,0.331925 0.456571,0.459768 0.125643,0.127843 0.238447,0.232441 0.250676,0.232441 0.01223,0 1.03266,-0.975125 2.267625,-2.166947 z m -0.703607,1.246899 c 0.217998,-0.07179 0.802748,-0.369888 1.038307,-0.529323 0.471882,-0.319385 0.851113,-0.69938 1.196188,-1.198601 0.184183,-0.266458 0.471204,-0.826342 0.519879,-1.014118 0.01268,-0.04892 -0.403829,0.33294 -1.198207,1.098531 -1.304666,1.257387 -1.748921,1.693781 -1.724291,1.693781 0.0085,0 0.08416,-0.02262 0.168124,-0.05027 z M 10.690624,4.9166902 c 0,-1.1182967 -0.01094,-1.7545528 -0.03017,-1.7545528 -0.07989,0 -1.6397709,1.5663488 -1.7394251,1.7466368 -0.025906,0.04687 0.098984,0.181325 0.8440709,0.908737 0.4809612,0.4695517 0.8859592,0.8537307 0.8999962,0.8537307 0.01404,0 0.02552,-0.7895487 0.02552,-1.7545517 z m 1.625194,0.525921 0.772867,-0.7487547 -0.06169,-0.06854 c -0.518787,-0.576394 -1.428854,-1.4631811 -1.501591,-1.4631811 -0.01814,0 -0.02938,0.5796621 -0.02938,1.5146131 0,0.8330377 0.01056,1.5146144 0.02346,1.5146144 0.01291,0 0.371255,-0.3369397 0.796331,-0.7487537 z M 9.6993664,12.663141 v -0.293352 h 0.2168381 c 0.1720925,0 0.2168375,0.0093 0.2168375,0.04499 0,0.03399 -0.03786,0.04499 -0.1548844,0.04499 -0.1445584,0 -0.1548832,0.005 -0.1548832,0.07498 0,0.06887 0.011356,0.07498 0.139395,0.07498 0.1032556,0 0.1393966,0.01166 0.1393966,0.04499 0,0.03332 -0.03614,0.04499 -0.1393966,0.04499 -0.1280373,0 -0.139395,0.0061 -0.139395,0.07498 0,0.06998 0.010324,0.07498 0.1548832,0.07498 0.1358984,0 0.1548844,0.0076 0.1548844,0.06198 0,0.05756 -0.01546,0.06137 -0.2168375,0.05341 l -0.2168381,-0.0086 z m 0.6910406,0.276215 c -0.184404,-0.07192 -0.217517,-0.367691 -0.0562,-0.502038 0.0943,-0.07853 0.281033,-0.0908 0.373733,-0.02456 0.04819,0.03444 0.05244,0.05051 0.02141,0.08098 -0.03012,0.02956 -0.04698,0.03001 -0.07589,0.002 -0.102632,-0.09937 -0.303573,0.01434 -0.303573,0.171779 0,0.09921 0.135907,0.225819 0.215675,0.20092 0.172594,-0.05387 0.187023,-0.05481 0.187023,-0.01211 0,0.08912 -0.218246,0.139135 -0.36217,0.083 z m 1.167568,-2.05199 c 0,-0.261889 0.0081,-0.317118 0.04647,-0.317118 0.02556,0 0.04647,0.01619 0.04647,0.03599 0,0.02799 0.0083,0.02799 0.03717,0 0.05735,-0.05553 0.203774,-0.04264 0.272596,0.024 0.152331,0.147489 0.01585,0.416335 -0.192173,0.37855 -0.09908,-0.018 -0.102696,-0.01524 -0.102407,0.07808 2.34e-4,0.0683 -0.01563,0.0998 -0.05391,0.107181 -0.04889,0.0094 -0.05421,-0.02067 -0.05421,-0.306672 z m 0.303573,0.0068 c 0.05095,-0.04933 0.04673,-0.15893 -0.0078,-0.202753 -0.05849,-0.047 -0.16354,-0.01384 -0.187478,0.05919 -0.04166,0.127093 0.102692,0.233213 0.195285,0.143562 z m 0.284986,-0.173957 c 0,-0.279929 0.0042,-0.299924 0.06195,-0.299924 0.05163,0 0.06195,0.01999 0.06195,0.11997 v 0.119969 h 0.139395 0.139396 v -0.119969 c 0,-0.09997 0.01033,-0.11997 0.06195,-0.11997 0.05782,0 0.06195,0.01999 0.06195,0.299924 0,0.279928 -0.0042,0.299924 -0.06195,0.299924 -0.05132,0 -0.06195,-0.01999 -0.06195,-0.116473 0,-0.09509 -0.01262,-0.119666 -0.06876,-0.133881 -0.03782,-0.0096 -0.100548,-0.0097 -0.139396,-2.26e-4 -0.05839,0.01419 -0.07063,0.0374 -0.07063,0.133882 0,0.09672 -0.0106,0.116718 -0.06195,0.116718 -0.05782,0 -0.06195,-0.01999 -0.06195,-0.299923 z m 0.725528,-1.4799307 c -0.03186,-0.0804 0.0015,-0.479473 0.04115,-0.492167 0.0271,-0.0087 0.03872,0.02774 0.03872,0.121396 0,0.08234 0.01787,0.148153 0.04647,0.17113 0.07583,0.06094 0.139395,-0.01553 0.139395,-0.167689 0,-0.103546 0.0096,-0.126802 0.04647,-0.113088 0.03403,0.01265 0.04647,0.06457 0.04647,0.194009 0,0.137112 -0.01042,0.176745 -0.04647,0.176745 -0.02556,0 -0.04647,-0.01515 -0.04647,-0.03366 0,-0.02339 -0.01407,-0.02236 -0.04607,0.0033 -0.02534,0.02036 -0.06716,0.02919 -0.09293,0.01961 -0.03534,-0.01313 -0.04686,0.0045 -0.04686,0.07163 0,0.09071 -0.05092,0.121785 -0.07987,0.04874 z m 0.521289,0.02044 c -0.06516,-0.02546 -0.04302,-0.07474 0.03098,-0.06894 0.138134,0.01084 0.178116,-0.0017 0.178116,-0.05596 0,-0.04386 -0.0186,-0.05215 -0.09321,-0.04154 -0.121561,0.01727 -0.185578,-0.03743 -0.185578,-0.1586 0,-0.125575 0.06508,-0.175757 0.235158,-0.181317 l 0.136564,-0.0045 v 0.21571 c 0,0.170886 -0.01177,0.226025 -0.05665,0.265347 -0.05462,0.04785 -0.164856,0.06123 -0.245376,0.02977 z m 0.173083,-0.24642 c 0.02279,-0.01399 0.03673,-0.05764 0.03098,-0.09702 -0.0078,-0.05367 -0.02984,-0.07159 -0.0879,-0.07159 -0.05805,0 -0.08006,0.01792 -0.0879,0.07159 -0.0089,0.06121 0.03502,0.122442 0.0879,0.122442 0.0085,0 0.03413,-0.01144 0.05692,-0.02543 z m 0.238954,0.03384 c 0.128252,-0.4085687 0.164398,-0.5009587 0.20056,-0.5126287 0.04447,-0.01435 0.04684,-0.02533 -0.0815,0.3776627 -0.04859,0.152586 -0.105323,0.277429 -0.126065,0.277429 -0.02865,0 -0.02697,-0.03424 0.007,-0.142463 z m 0.261709,-0.11247 c 0,-0.109972 0.0135,-0.194951 0.03098,-0.194951 0.01704,0 0.03098,0.01397 0.03098,0.03105 0,0.02105 0.01995,0.02071 0.06195,-0.001 0.04315,-0.02236 0.08022,-0.02264 0.122138,-9.41e-4 0.04216,0.02185 0.08273,0.02124 0.135477,-0.002 0.05542,-0.02445 0.09268,-0.02421 0.141166,9.41e-4 0.05484,0.02842 0.06587,0.06158 0.06587,0.198036 0,0.201123 -0.05494,0.218447 -0.068,0.02144 -0.0086,-0.129529 -0.01647,-0.142464 -0.08688,-0.142464 -0.07041,0 -0.0783,0.01293 -0.08688,0.142464 -0.0065,0.09727 -0.02311,0.142464 -0.05251,0.142464 -0.0294,0 -0.04606,-0.0452 -0.05251,-0.142464 -0.0079,-0.119422 -0.01946,-0.142464 -0.0714,-0.142464 -0.05193,0 -0.06348,0.02304 -0.0714,0.142464 -0.0066,0.100022 -0.02278,0.142464 -0.05421,0.142464 -0.03445,0 -0.04477,-0.04494 -0.04477,-0.194951 z m 0.741146,-0.101293 c 0.08623,-0.02333 0.124782,-0.09366 0.05134,-0.09366 -0.05837,0 -0.06321,-0.03427 -0.01187,-0.08398 0.02891,-0.02799 0.02203,-0.03599 -0.03098,-0.03599 -0.03748,0 -0.06815,-0.01439 -0.06815,-0.03198 0,-0.01759 0.03774,-0.02771 0.08386,-0.0225 0.07643,0.0086 0.0847,0.02211 0.09329,0.151954 l 0.0094,0.142463 -0.101038,-0.003 c -0.09041,-0.0027 -0.09314,-0.0051 -0.02589,-0.02332 z"
       id="path1"
       sodipodi:nodetypes="ssssssssscscccsscccsccsscsccssssssscsssscssssssssssscsscsscssssssssssssssssssssssssssssssssscccsscssssscccssscccsssssssssssssssssssscsssscsssscccssscccssscccssssssscccssscccscssssscccsssssssssssssssssscsssssccsssssssssssccssssssssssssscsscsssssssssscccsssssscsssssssssssssssssssssssscssssscscsscsssccsssssssssscsssssssssssssscsss" />
    <text
       xml:space="preserve"
       style="font-size:10.5833px;line-height:1.25;font-family:sans-serif;text-align:center;letter-spacing:0px;word-spacing:0px;text-anchor:middle;fill:#ffffff;stroke-width:0.264583"
       x="55.957909"
       y="12.262784"
       id="text2"><tspan
         sodipodi:role="line"
         id="tspan2"
         style="fill:#ffffff;stroke-width:0.264583"
         x="55.957912"
         y="12.262784">Ecological Unit</tspan></text>
  </g>
</svg>
