<?xml version="1.0" encoding="UTF-8" standalone="no"?>
<!-- Created with Inkscape (http://www.inkscape.org/) -->

<svg
   width="210mm"
   height="297mm"
   viewBox="0 0 210 297"
   version="1.1"
   id="svg1"
   xml:space="preserve"
   inkscape:version="1.4.2 (1:1.4.2+202505120737+ebf0e940d0)"
   sodipodi:docname="logo2.svg"
   xmlns:inkscape="http://www.inkscape.org/namespaces/inkscape"
   xmlns:sodipodi="http://sodipodi.sourceforge.net/DTD/sodipodi-0.dtd"
   xmlns="http://www.w3.org/2000/svg"
   xmlns:svg="http://www.w3.org/2000/svg"><sodipodi:namedview
     id="namedview1"
     pagecolor="#ffffff"
     bordercolor="#666666"
     borderopacity="1.0"
     inkscape:showpageshadow="2"
     inkscape:pageopacity="0.0"
     inkscape:pagecheckerboard="0"
     inkscape:deskcolor="#d1d1d1"
     inkscape:document-units="mm"
     inkscape:zoom="0.5550014"
     inkscape:cx="396.39539"
     inkscape:cy="561.25984"
     inkscape:window-width="1534"
     inkscape:window-height="831"
     inkscape:window-x="66"
     inkscape:window-y="32"
     inkscape:window-maximized="1"
     inkscape:current-layer="layer1" /><defs
     id="defs1" /><g
     inkscape:label="Ebene 1"
     inkscape:groupmode="layer"
     id="layer1"><path
       style="fill:#445500"
       d="m 79.489862,191.22084 c -2.565571,-0.50758 -4.771262,-2.33884 -5.651838,-4.69239 -0.470481,-1.25747 -0.524528,-2.06883 -0.524528,-7.87429 v -6.47236 h 2.116667 2.116666 v 5.83793 c 0,5.34645 0.04683,5.94679 0.556309,7.1311 0.690156,1.60431 1.472785,2.13442 3.379935,2.28937 1.74,0.14136 2.87587,-0.41421 3.7381,-1.82838 0.48558,-0.79641 0.52584,-1.34258 0.52675,-7.14617 l 9.9e-4,-6.28385 h 2.24896 2.24896 l -0.0116,5.09322 c -0.018,7.89184 -0.40539,9.87779 -2.3272,11.93048 -1.71945,1.83656 -5.15931,2.66007 -8.418151,2.01534 z m 14.725721,-9.51405 v -9.52499 h 1.88015 c 1.73543,0 1.92381,0.0558 2.44739,0.72548 0.31199,0.39902 1.22209,1.51402 2.022457,2.47778 0.80036,0.96375 2.5863,3.14256 3.96874,4.84179 l 2.51355,3.0895 0.0714,-5.56728 0.0714,-5.56727 h 2.2437 2.24369 v 9.52499 9.525 h -1.79906 -1.79906 l -4.61708,-5.59535 -4.617087,-5.59535 -0.0714,5.59535 -0.0714,5.59535 h -2.2437 -2.24369 z m 21.695827,0.0107 v -9.5357 h 2.11666 2.11667 l 0.0142,7.87135 c 0.008,4.32924 0.0326,8.58573 0.0552,9.45885 l 0.0409,1.5875 -2.17183,0.0769 -2.17183,0.0769 z m 12.7,1.84138 v -7.67292 h -2.91042 -2.91042 v -1.85208 -1.85208 h 8.0698 8.06979 v 1.85208 1.85208 h -2.91042 -2.91042 l -0.008,0.72761 c -0.004,0.40018 -9.1e-4,3.85299 0.008,7.67291 l 0.016,6.94531 h -2.25685 -2.25685 z M 40.372873,165.67886 c -6.37216,-1.97891 -8.742553,-9.64588 -4.711609,-15.23956 1.874582,-2.60134 4.723043,-3.78813 8.65244,-3.60499 2.756531,0.12847 4.185614,0.65597 5.848752,2.15886 l 1.058333,0.95635 -1.455208,1.30677 c -1.420019,1.27517 -1.468005,1.2952 -1.984375,0.82834 -1.618076,-1.46295 -4.834086,-1.94617 -6.641453,-0.99791 -1.153738,0.60532 -2.408075,2.11612 -2.735346,3.29461 -1.630733,5.87224 3.837272,10.10296 8.768567,6.78444 l 1.314068,-0.8843 1.300727,1.09679 c 0.715401,0.60323 1.300728,1.24674 1.300728,1.43001 0,0.4256 -1.643108,1.72182 -3.151913,2.48649 -1.551855,0.7865 -5.605179,0.99233 -7.563711,0.3841 z m 18.732456,-0.0604 c -4.828763,-1.72044 -7.421129,-6.4068 -6.291483,-11.37348 0.676812,-2.97571 2.355998,-5.09445 5.229731,-6.59869 1.26696,-0.66319 1.627105,-0.72241 4.422003,-0.72712 2.737687,-0.005 3.188588,0.0641 4.497917,0.68546 4.039419,1.91694 6.186268,5.8419 5.571151,10.18541 -0.466047,3.29089 -2.305325,5.85533 -5.233484,7.29686 -1.545309,0.76075 -2.049047,0.87147 -4.285552,0.94192 -1.950835,0.0615 -2.851215,-0.033 -3.910283,-0.41036 z m 6.342958,-4.07573 c 2.990201,-1.65172 3.719291,-6.2103 1.453882,-9.0903 -0.699696,-0.88952 -2.958076,-1.96051 -4.141309,-1.96392 -2.40063,-0.007 -4.988249,1.79384 -5.565635,3.87322 -0.680019,2.449 0.167191,5.5577 1.846071,6.77386 1.885313,1.36569 4.384206,1.52448 6.406991,0.40714 z m 31.872036,4.28033 c -4.73709,-1.18545 -7.84599,-6.06792 -7.05398,-11.07815 0.45915,-2.90457 2.30519,-5.43321 5.05495,-6.9241 1.62879,-0.88311 1.75178,-0.90676 4.715117,-0.90676 2.60413,0 3.23036,0.0865 4.34455,0.60037 3.87226,1.78577 5.90647,5.23617 5.65464,9.59132 -0.20789,3.59526 -2.05234,6.44948 -5.15473,7.97679 -1.53092,0.75367 -2.04688,0.86852 -4.15609,0.92517 -1.324487,0.0356 -2.856497,-0.0475 -3.404457,-0.18464 z m 5.599397,-4.21081 c 2.09245,-1.06749 3.31724,-4.04508 2.69005,-6.53978 -0.45142,-1.79557 -1.2073,-2.90087 -2.48753,-3.63744 -4.113787,-2.36682 -8.642077,0.35039 -8.642077,5.18571 0,1.40319 1.12487,3.78533 2.13196,4.51485 1.84416,1.33587 4.264827,1.5188 6.307597,0.47666 z m 16.35653,4.19528 c -3.14407,-0.74034 -5.75403,-3.26073 -6.68193,-6.45261 -0.48472,-1.66736 -0.4281,-4.42331 0.12888,-6.27348 0.41078,-1.36454 2.12161,-3.55272 3.59887,-4.60301 3.15303,-2.24172 8.72229,-2.29031 11.90025,-0.10382 1.84236,1.26759 1.85209,1.33177 0.41606,2.7462 l -1.28026,1.26102 -1.42388,-0.80031 c -1.69765,-0.95418 -3.64154,-1.26691 -5.22488,-0.84056 -1.47598,0.39744 -3.37969,2.13742 -3.73394,3.41281 -0.83303,2.99906 0.14644,6.09578 2.335,7.38234 1.03069,0.6059 1.53281,0.72245 3.08328,0.71565 1.01864,-0.004 2.1795,-0.15035 2.57969,-0.32418 l 0.7276,-0.31606 v -2.78467 -2.78468 h 1.98438 1.98437 v 3.9643 3.96429 l -1.38906,0.70574 c -0.76399,0.38815 -1.98438,0.865 -2.71198,1.05965 -1.47583,0.39481 -4.76064,0.43208 -6.29245,0.0714 z m 29.17891,0.10818 c -1.20016,-0.19698 -2.22808,-0.68642 -3.89049,-1.85244 -1.40825,-0.98775 -1.78198,-1.43556 -2.62989,-3.15119 -0.9091,-1.83944 -0.98885,-2.18389 -0.99446,-4.29476 -0.008,-2.84875 0.66792,-4.72772 2.38693,-6.63968 1.79215,-1.9933 4.03635,-3.00602 6.97243,-3.1464 1.6231,-0.0776 2.74318,0.016 3.77246,0.3152 1.63359,0.4749 3.99634,1.97576 4.12217,2.61847 0.045,0.22998 -0.48064,0.96484 -1.16814,1.63302 -1.24019,1.20536 -1.25431,1.21094 -1.80165,0.71155 -2.41533,-2.20372 -6.46746,-2.06166 -8.48683,0.29752 -2.89794,3.38559 -1.35996,8.60694 2.87079,9.74617 1.81474,0.48866 4.34782,-0.23529 5.57635,-1.5937 l 0.51196,-0.56609 1.40359,1.38615 1.40359,1.38615 -0.72493,0.76352 c -0.82242,0.86621 -2.34345,1.73406 -3.89993,2.22517 -0.99569,0.31417 -3.95624,0.40224 -5.42395,0.16134 z M 17.221832,156.43909 v -9.39271 h 7.011458 7.011458 v 1.71382 1.71383 l -4.828645,0.0721 -4.828646,0.0721 -0.07774,1.91823 -0.07774,1.91823 h 4.200827 c 2.310455,0 4.250437,0.0492 4.31107,0.1094 0.06063,0.0602 0.07005,0.8311 0.02093,1.71319 l -0.08931,1.60379 -4.144019,0.0728 -4.14402,0.0728 v 2.11666 2.11667 h 4.233333 c 6.256251,0 5.688542,-0.18483 5.688542,1.85208 v 1.7198 h -7.14375 -7.14375 z m 58.472914,0 v -9.39271 h 2.116667 2.11667 v 7.53438 7.53437 l 4.56406,0.0724 4.56406,0.0724 0.0782,1.78594 0.0782,1.78594 h -6.75896 -6.758967 z m 57.943744,0 v -9.39271 h 2.11667 2.11666 v 9.39271 9.39271 h -2.11666 -2.11667 z m 25.13542,9.24517 c 0,-0.0811 0.64162,-1.53966 1.42583,-3.24115 0.78421,-1.70148 2.08901,-4.64142 2.89955,-6.53319 0.81054,-1.89177 1.99356,-4.63021 2.62894,-6.08542 l 1.15524,-2.64583 2.25641,-0.0759 2.25641,-0.0759 0.68128,1.53109 c 0.37471,0.8421 1.38768,3.13843 2.25105,5.10296 0.86337,1.96453 2.41973,5.44879 3.45857,7.74279 1.03884,2.29401 1.8888,4.22877 1.8888,4.29948 0,0.0707 -1.0418,0.12818 -2.31511,0.1277 l -2.3151,-8.6e-4 -0.75921,-1.85122 -0.75921,-1.85122 -4.40016,0.003 -4.40017,0.003 -0.74842,1.84882 -0.74843,1.84883 h -2.22814 c -1.22547,0 -2.22813,-0.0664 -2.22813,-0.14754 z m 12.88176,-8.12069 c -0.19497,-0.47295 -0.80884,-1.96123 -1.36415,-3.30729 -0.5553,-1.34607 -1.09166,-2.4474 -1.19189,-2.4474 -0.10023,0 -0.62907,1.10133 -1.1752,2.4474 -0.54613,1.34606 -1.16188,2.83434 -1.36833,3.30729 l -0.37538,0.85989 h 2.91473 2.91472 z m 9.8724,-1.12002 v -9.39717 h 2.24595 2.24595 l -0.0596,1.52135 c -0.0328,0.83675 -0.0315,4.2598 0.003,7.60677 l 0.0624,6.08542 h 4.56425 4.56424 v 1.71979 1.71979 l -6.81302,0.0706 -6.81302,0.0706 z m -77.6552,-23.029 c -0.87313,-0.37882 -2.03939,-0.85653 -2.59169,-1.06159 -1.763887,-0.65488 -8.690347,-4.20874 -11.563517,-5.93306 -3.59557,-2.15786 -7.37773,-4.85776 -9.45885,-6.75219 -1.27748,-1.16288 -1.65365,-1.67409 -1.65365,-2.24726 0,-2.13098 2.46782,-8.28403 4.54553,-11.33344 2.53557,-3.72139 6.96414,-8.846571 13.18986,-15.264591 10.939117,-11.277003 16.227177,-17.356195 20.198037,-23.219811 2.24015,-3.30795 5.192,-9.274353 6.22014,-12.572416 0.75784,-2.431015 1.63416,-6.244677 1.60688,-6.992966 -0.007,-0.188036 -3.39696,3.110929 -7.53355,7.331033 l -7.52108,7.672916 -0.007,2.878102 -0.007,2.878103 -1.91822,2.278211 c -1.05503,1.253016 -2.5987,2.993963 -3.43037,3.868772 l -1.51214,1.590561 -0.0215,-4.630208 -0.0214,-4.630208 -9.916297,-10.025462 c -5.45396,-5.514004 -9.95528,-9.978847 -10.00293,-9.921874 -0.0476,0.05697 -0.79723,1.17515 -1.66574,2.484837 -3.143047,4.739673 -6.17181,10.01559 -6.17181,10.750916 0,0.174606 2.65434,3.006299 5.89853,6.29265 11.36786,11.515578 15.66562,15.918585 15.73672,16.122092 0.0395,0.112889 -0.98397,1.306107 -2.27426,2.651595 l -2.34598,2.446343 -9.96,-10.125446 C 75.520149,71.67638 71.640129,67.921358 71.491436,68.078777 c -0.271252,0.287171 -1.175436,3.694387 -1.780401,6.709044 -0.222032,1.106428 -0.470871,3.861029 -0.552976,6.121336 -0.159641,4.394816 0.152831,7.166724 1.296458,11.500762 1.021015,3.86938 3.792476,9.755721 5.810596,12.341201 0.902487,1.15621 0.909769,1.26286 0.183288,2.68445 -0.313095,0.61266 -0.945109,2.23384 -1.404476,3.60262 l -0.835213,2.48868 -1.595783,-1.95951 C 66.777809,104.40221 63.322656,95.958359 62.446165,86.721382 60.689415,68.207703 70.173435,47.979521 90.088023,27.764891 93.911673,23.88364 101.10604,17.254893 104.3453,14.628531 l 1.53076,-1.24113 1.86318,1.505379 c 7.03527,5.684238 13.32983,11.815902 20.67583,20.140764 1.33122,1.508608 2.28658,9.015742 1.79543,14.108252 -1.07478,11.143693 -6.0588,21.060911 -16.6256,33.08167 -1.08732,1.236927 -5.70233,6.17802 -10.25558,10.980203 -9.944497,10.488191 -13.492807,14.730731 -15.932757,19.050001 -1.70781,3.02322 -1.75815,2.77642 0.97699,4.78997 1.31533,0.96831 2.31603,1.88267 2.2238,2.03191 -0.0943,0.15256 -0.0385,0.19149 0.12748,0.0889 0.16235,-0.10033 1.26884,0.42146 2.45888,1.15954 1.19004,0.73809 2.26584,1.3078 2.39066,1.26603 0.41148,-0.13769 46.530817,-46.366868 46.529227,-46.640045 -0.003,-0.596963 -1.57909,-6.031567 -2.38655,-8.231712 -1.3602,-3.706209 -3.55612,-8.67093 -4.75478,-10.749964 l -1.09733,-1.903297 0.40398,-1.465043 c 0.4347,-1.57647 0.9158,-5.064981 1.02304,-7.418168 l 0.0663,-1.455208 2.30604,3.460359 c 8.14963,12.229027 12.37834,25.619757 12.37834,39.197542 0,6.644435 -0.91707,11.653185 -3.25893,17.799386 -1.31329,3.4467 -1.86519,4.59423 -3.56301,7.40834 -4.57814,7.58818 -11.11872,13.52589 -19.23952,17.46615 -4.01578,1.94849 -7.03079,3.00158 -11.37708,3.97383 -5.17578,1.1578 -6.78187,1.22813 -8.73125,0.38235 z m 19.5225,-19.77181 c 16.19143,-16.138671 19.2043,-19.257021 19.34338,-20.020571 0.14905,-0.81829 0.24133,-1.81706 0.55201,-5.974745 0.10319,-1.380927 -0.30993,-8.472288 -0.52908,-9.081934 -0.0799,-0.222343 -0.85253,0.380512 -2.11109,1.647262 -1.09176,1.09887 -1.98502,2.086026 -1.98502,2.193679 0,0.107653 0.5418,0.7458 1.20399,1.418104 1.01907,1.034629 1.14487,1.27144 0.81903,1.541864 -0.31569,0.261992 -0.58774,0.103152 -1.51162,-0.882553 -1.24971,-1.333343 -1.44099,-1.400574 -2.15257,-0.756601 -0.47459,0.429502 -0.44734,0.491003 0.76134,1.718138 0.98097,0.995942 1.18392,1.34233 0.93331,1.592941 -0.25061,0.250611 -0.57235,0.07283 -1.4796,-0.81756 -1.01409,-0.995253 -1.22942,-1.100303 -1.71869,-0.838453 -0.30764,0.164646 -0.55935,0.446229 -0.55935,0.62574 0,0.179511 1.18722,1.509156 2.63828,2.954765 2.50434,2.494943 2.61594,2.653073 2.19817,3.114693 -0.42067,0.46484 -0.55952,0.36732 -3.14346,-2.20783 -2.71841,-2.709158 -3.30865,-3.013947 -3.72674,-1.924415 -0.11874,0.309425 0.20415,0.795322 1.07572,1.618815 1.02162,0.96525 1.18799,1.24584 0.92593,1.56161 -0.27017,0.32553 -0.51769,0.18967 -1.60421,-0.88051 -1.04276,-1.027077 -1.36799,-1.212914 -1.7267,-0.986645 -0.72394,0.456655 -0.65617,0.707125 0.56573,2.090895 1.57156,1.77976 1.00356,2.15147 -0.70976,0.46448 l -1.25808,-1.23875 -0.58535,0.58534 -0.58534,0.58535 1.30268,1.32257 c 1.04863,1.06464 1.23741,1.38739 0.96798,1.65495 -0.26911,0.26726 -0.57089,0.0829 -1.54008,-0.94106 -1.20153,-1.26937 -1.78307,-1.42389 -2.11393,-0.56168 -0.11358,0.29598 0.45304,1.04592 1.85808,2.45925 1.11182,1.11838 2.02149,2.10734 2.02149,2.19769 0,0.0904 -0.20088,0.24137 -0.4464,0.33558 -0.32288,0.1239 -1.01823,-0.39717 -2.51297,-1.88314 l -2.06656,-2.05445 -0.58723,0.58723 -0.58723,0.58723 1.25017,1.26925 c 0.98123,0.99621 1.18098,1.33844 0.92856,1.59086 -0.25243,0.25243 -0.59466,0.0527 -1.59087,-0.92856 l -1.26925,-1.25016 -0.58535,0.58534 -0.58534,0.58535 1.27348,1.29293 c 0.85834,0.87144 1.17092,1.35632 0.95885,1.487381 -0.18906,0.11685 -0.75757,-0.240261 -1.42445,-0.894741 -1.24534,-1.22221 -1.48543,-1.2923 -2.10014,-0.61305 -0.40522,0.44776 -0.30397,0.60158 1.69809,2.579691 1.17095,1.15694 2.36671,2.43118 2.65725,2.83165 0.46667,0.64324 0.48254,0.77382 0.13619,1.12018 -0.34636,0.34635 -0.69403,0.0841 -2.98242,-2.24948 -1.4247,-1.45284 -2.70569,-2.64153 -2.84664,-2.64153 -0.14095,0 -0.47777,0.20045 -0.74849,0.44545 -0.47459,0.4295 -0.44726,0.49108 0.76322,1.72004 1.11609,1.13314 1.21137,1.31866 0.85844,1.67158 -0.35293,0.35293 -0.50748,0.26481 -1.39253,-0.794 -1.09603,-1.31119 -1.35404,-1.40362 -2.08121,-0.74554 -0.4746,0.4295 -0.44735,0.491 0.76134,1.71814 0.98096,0.99594 1.18391,1.34233 0.9333,1.59294 -0.25061,0.25061 -0.57465,0.0706 -1.49016,-0.82793 -1.18937,-1.16728 -1.83764,-1.28585 -2.17819,-0.39838 -0.11319,0.29495 0.43672,1.03014 1.79193,2.39568 1.58419,1.59627 1.87992,2.01798 1.55836,2.22224 -0.21828,0.13865 -0.47652,0.25392 -0.57388,0.25615 -0.0973,0.002 -0.95221,-0.84533 -1.89969,-1.88345 -1.20202,-1.31702 -1.85006,-1.83863 -2.1441,-1.7258 -0.88329,0.33895 -0.76309,0.98894 0.40252,2.17661 0.89851,0.91551 1.07854,1.23955 0.82793,1.49016 -0.25061,0.25061 -0.597,0.0477 -1.59294,-0.9333 -1.22714,-1.20868 -1.28864,-1.23594 -1.71814,-0.76134 -0.62352,0.68899 -0.58288,0.81964 0.64376,2.0695 0.65448,0.66687 1.01159,1.23539 0.89474,1.42445 -0.13106,0.21206 -0.61594,-0.10051 -1.48738,-0.95885 l -1.29293,-1.27349 -0.58198,0.58198 -0.58198,0.58198 2.56766,2.61344 c 1.41222,1.4374 2.56766,2.7988 2.56766,3.02534 0,0.9888 -0.83402,0.49036 -3.37212,-2.0153 l -2.71067,-2.67602 -0.58796,0.58797 -0.58797,0.58797 1.31398,1.33404 c 1.07239,1.08876 1.24107,1.37917 0.91739,1.57945 -0.29725,0.18393 -0.71176,-0.0649 -1.65468,-0.99335 l -1.25808,-1.23875 -0.58535,0.58535 -0.58534,0.58534 1.26147,1.28074 c 1.04884,1.06485 1.1984,1.33309 0.88725,1.59132 -0.30167,0.25036 -0.59093,0.0755 -1.49187,-0.90192 -1.11997,-1.21502 -1.70912,-1.35816 -2.04009,-0.49565 -0.11303,0.29455 0.42286,1.01565 1.74078,2.34242 1.69519,1.70658 1.85726,1.95572 1.47733,2.27103 -0.37258,0.30922 -0.67666,0.10592 -2.39587,-1.60182 l -1.96913,-1.95599 -0.58702,0.58702 -0.58702,0.58702 1.25017,1.26925 c 0.98122,0.99621 1.18098,1.33844 0.92855,1.59086 -0.25242,0.25243 -0.59465,0.0527 -1.59086,-0.92855 l -1.26925,-1.25017 -0.58535,0.58535 -0.58534,0.58534 1.26866,1.28803 c 0.93036,0.94457 1.1662,1.32735 0.8844,1.43549 -0.22946,0.088 -0.79232,-0.27044 -1.39716,-0.88985 -1.14043,-1.1679 -1.32232,-1.22099 -2.019957,-0.58964 -0.47599,0.43076 -0.39286,0.54981 2.202167,3.1537 2.55798,2.56672 2.67323,2.72965 2.23847,3.16441 -0.43477,0.43477 -0.59709,0.32012 -3.15268,-2.22678 l -2.694317,-2.68514 -1.13594,1.10255 -1.13595,1.10256 1.94853,2.00541 c 1.07169,1.10298 2.826557,2.92815 3.899727,4.05594 1.07316,1.12779 2.03666,2.05052 2.14111,2.05052 0.10445,0 8.82029,-8.60226 19.36854,-19.11614 z m -6.00974,10.99976 c 1.86199,-0.63328 6.85654,-3.26305 8.86853,-4.66953 4.0305,-2.81752 7.26964,-6.16972 10.21704,-10.57369 1.57317,-2.35061 4.02471,-7.28974 4.44046,-8.94623 0.10832,-0.43158 -3.44924,2.93709 -10.23429,9.6909 -11.14359,11.09228 -14.93812,14.94201 -14.72774,14.94201 0.0727,0 0.71885,-0.19956 1.436,-0.44346 z M 102.41766,41.345343 c 0,-9.865266 -0.0934,-15.478124 -0.25767,-15.478124 -0.68236,0 -14.005827,13.817846 -14.857007,15.408302 -0.22127,0.413444 0.84545,1.599584 7.20949,8.016593 4.10805,4.142244 7.567277,7.531353 7.687177,7.531353 0.11991,0 0.21801,-6.965156 0.21801,-15.478124 z m 13.88132,4.639513 6.60132,-6.605278 -0.5269,-0.604618 c -4.43115,-5.084772 -12.20434,-12.907741 -12.82561,-12.907741 -0.15492,0 -0.25097,5.113602 -0.25097,13.361457 0,7.348802 0.0902,13.361458 0.20043,13.361458 0.11023,0 3.17101,-2.972375 6.80173,-6.605278 z M 93.950993,109.68216 v -2.58786 h 1.85209 c 1.4699,0 1.85208,0.0819 1.85208,0.39687 0,0.29986 -0.32338,0.39688 -1.32292,0.39688 -1.23472,0 -1.32291,0.0441 -1.32291,0.66146 0,0.60756 0.097,0.66146 1.19062,0.66146 0.88194,0 1.19063,0.10289 1.19063,0.39687 0,0.29398 -0.30869,0.39688 -1.19063,0.39688 -1.09361,0 -1.19062,0.0539 -1.19062,0.66145 0,0.61736 0.0882,0.66146 1.32291,0.66146 1.16075,0 1.32292,0.067 1.32292,0.54681 0,0.50781 -0.13208,0.54141 -1.85208,0.47119 l -1.85209,-0.0756 z m 5.90241,2.43668 c -1.57506,-0.63444 -1.85788,-3.24366 -0.48006,-4.42882 0.805427,-0.69279 2.400397,-0.80105 3.192187,-0.21666 0.41164,0.30382 0.44794,0.44562 0.18286,0.71438 -0.25724,0.26079 -0.40129,0.26475 -0.64823,0.0178 -0.87661,-0.87661 -2.592917,0.12645 -2.592917,1.51538 0,0.8752 1.160827,1.99211 1.842157,1.77245 1.47418,-0.47527 1.59742,-0.48351 1.59742,-0.10678 0,0.78616 -1.86411,1.22741 -3.093417,0.73224 z m 9.972587,-18.102021 c 0,-2.3103 0.0691,-2.79752 0.39688,-2.79752 0.21828,0 0.39687,0.14287 0.39687,0.3175 0,0.24694 0.0706,0.24694 0.3175,0 0.48986,-0.48986 1.7405,-0.37616 2.32833,0.21167 1.30111,1.3011 0.13538,3.67278 -1.64141,3.33945 -0.84631,-0.15877 -0.87716,-0.13448 -0.87469,0.68876 0.002,0.6025 -0.13354,0.88043 -0.46046,0.94551 -0.41759,0.0831 -0.46302,-0.18233 -0.46302,-2.70537 z m 2.59292,0.06 c 0.43519,-0.43519 0.39915,-1.40203 -0.0667,-1.78863 -0.49962,-0.41465 -1.39685,-0.12207 -1.60132,0.52217 -0.35585,1.12117 0.87713,2.05733 1.668,1.26646 z m 2.43416,-1.53458 c 0,-2.46945 0.0353,-2.64584 0.52917,-2.64584 0.44097,0 0.52917,0.17639 0.52917,1.05834 v 1.05833 h 1.19062 1.19063 v -1.05833 c 0,-0.88195 0.0882,-1.05834 0.52916,-1.05834 0.49389,0 0.52917,0.17639 0.52917,2.64584 0,2.46944 -0.0353,2.64583 -0.52917,2.64583 -0.43832,0 -0.52916,-0.17639 -0.52916,-1.02748 0,-0.83887 -0.10781,-1.05566 -0.58734,-1.18106 -0.32303,-0.0845 -0.85881,-0.0855 -1.19062,-0.002 -0.49871,0.12517 -0.60329,0.32991 -0.60329,1.18107 0,0.85326 -0.0906,1.02965 -0.52917,1.02965 -0.49389,0 -0.52917,-0.17639 -0.52917,-2.64583 z m 6.19698,-13.055493 c -0.27218,-0.709285 0.0128,-4.229768 0.35146,-4.341748 0.2315,-0.07655 0.33073,0.24476 0.33073,1.070918 0,0.726356 0.15263,1.306951 0.39688,1.509653 0.64771,0.537558 1.19062,-0.136982 1.19062,-1.479301 0,-0.913453 0.0816,-1.118606 0.39688,-0.997629 0.29065,0.111533 0.39687,0.569615 0.39687,1.711488 0,1.20956 -0.089,1.559192 -0.39687,1.559192 -0.21829,0 -0.39688,-0.133641 -0.39688,-0.29698 0,-0.206316 -0.12013,-0.19728 -0.3935,0.0296 -0.21643,0.179619 -0.57362,0.257465 -0.79375,0.172992 -0.30188,-0.115842 -0.40025,0.03945 -0.40025,0.631858 0,0.80023 -0.43491,1.07434 -0.68219,0.429956 z m 4.4525,0.180261 c -0.55657,-0.224583 -0.36742,-0.659364 0.26459,-0.608169 1.17985,0.09557 1.52135,-0.01525 1.52135,-0.493695 0,-0.386874 -0.15891,-0.46002 -0.79617,-0.366489 -1.03829,0.152388 -1.58508,-0.330257 -1.58508,-1.399126 0,-1.107778 0.5559,-1.550473 2.00856,-1.599524 l 1.16644,-0.03939 v 1.902928 c 0,1.507506 -0.10054,1.993917 -0.48385,2.340809 -0.46649,0.422164 -1.40809,0.540167 -2.09584,0.262653 z m 1.47836,-2.173848 c 0.19463,-0.12337 0.3137,-0.5085 0.26458,-0.855845 -0.0669,-0.473438 -0.25488,-0.631536 -0.75075,-0.631536 -0.49587,0 -0.68381,0.158098 -0.75075,0.631536 -0.0763,0.539961 0.29911,1.080152 0.75075,1.080152 0.0728,0 0.29154,-0.100938 0.48617,-0.224307 z m 2.04099,0.298556 c 1.09544,-3.604265 1.40418,-4.419301 1.71305,-4.522256 0.37982,-0.126607 0.40005,-0.223443 -0.69613,3.331631 -0.41505,1.346068 -0.8996,2.447396 -1.07676,2.447396 -0.24472,0 -0.23034,-0.302024 0.0598,-1.256771 z m 2.23534,-0.992187 c 0,-0.970139 0.11533,-1.719792 0.26458,-1.719792 0.14552,0 0.26459,0.123252 0.26459,0.273892 0,0.185698 0.17039,0.182701 0.52916,-0.0093 0.36853,-0.19723 0.68522,-0.199687 1.04322,-0.0081 0.36011,0.192728 0.70662,0.187365 1.15715,-0.01791 0.47341,-0.2157 0.79158,-0.213564 1.20575,0.0081 0.46842,0.250691 0.56263,0.543233 0.56263,1.747012 0,1.774254 -0.46929,1.92707 -0.58081,0.189128 -0.0733,-1.142661 -0.1407,-1.25677 -0.7421,-1.25677 -0.6014,0 -0.66878,0.114109 -0.7421,1.25677 -0.0551,0.858053 -0.19736,1.256771 -0.44853,1.256771 -0.25117,0 -0.39346,-0.398718 -0.44852,-1.256771 -0.0676,-1.053501 -0.16623,-1.25677 -0.60981,-1.25677 -0.44358,0 -0.54221,0.203269 -0.60981,1.25677 -0.0566,0.882365 -0.19456,1.256771 -0.46302,1.256771 -0.29423,0 -0.38238,-0.396455 -0.38238,-1.719791 z m 6.33038,-0.893568 c 0.73651,-0.205814 1.0658,-0.826224 0.43854,-0.826224 -0.49853,0 -0.53993,-0.302328 -0.10142,-0.740833 0.24694,-0.246945 0.18815,-0.3175 -0.26458,-0.3175 -0.32015,0 -0.58209,-0.126971 -0.58209,-0.282158 0,-0.155186 0.32233,-0.244483 0.71628,-0.198437 0.65279,0.0763 0.72342,0.19511 0.79686,1.340491 l 0.0806,1.25677 -0.863,-0.02637 c -0.77224,-0.0236 -0.7955,-0.04524 -0.22117,-0.205736 z"
       id="path1"
       sodipodi:nodetypes="ssscccssssscccssssccssssccccccccccccccccccccccccccccccccccccccccccccsssscssssscsssscsscsssccsscssscssscssscsssssssssssscsssscscccccccssssssscssssssssscccsssccccccccccssscccccsscccccccccccccccccccccccccccssscccssssscccccccsccssssscccsccccscccccccccssssssssscscccsscccsccsscsccssssssscsssscssssssssssscsscsscssssssssssssssssssssssssssssssssscccsscssssscccssscccsssssssssssssssssssscsssscsssscccssscccssscccssssssscccssscccscssssscccsssssssssssssssssscsssssccsssssssssssccssssssssssssscsscsssssssssscccsssssscsssssssssssssssssssssssscssssscscsscsssccsssssssssscsssssssssssssscsss" /></g></svg>
