<?xml version="1.0" encoding="UTF-8" standalone="no"?>
<!-- Created with Inkscape (http://www.inkscape.org/) -->

<svg
   width="210mm"
   height="297mm"
   viewBox="0 0 210 297"
   version="1.1"
   id="svg1"
   xml:space="preserve"
   inkscape:version="1.4.2 (1:1.4.2+202505120737+ebf0e940d0)"
   sodipodi:docname="logo.svg"
   xmlns:inkscape="http://www.inkscape.org/namespaces/inkscape"
   xmlns:sodipodi="http://sodipodi.sourceforge.net/DTD/sodipodi-0.dtd"
   xmlns="http://www.w3.org/2000/svg"
   xmlns:svg="http://www.w3.org/2000/svg"><sodipodi:namedview
     id="namedview1"
     pagecolor="#ffffff"
     bordercolor="#666666"
     borderopacity="1.0"
     inkscape:showpageshadow="2"
     inkscape:pageopacity="0.0"
     inkscape:pagecheckerboard="0"
     inkscape:deskcolor="#d1d1d1"
     inkscape:document-units="mm"
     inkscape:zoom="0.39244526"
     inkscape:cx="501.98084"
     inkscape:cy="538.92867"
     inkscape:window-width="1534"
     inkscape:window-height="831"
     inkscape:window-x="66"
     inkscape:window-y="32"
     inkscape:window-maximized="1"
     inkscape:current-layer="layer1" /><defs
     id="defs1" /><g
     inkscape:label="Ebene 1"
     inkscape:groupmode="layer"
     id="layer1"><path
       id="path7"
       style="fill:#445500"
       d="M 88.714844,7.4179688 C 74.561678,19.017848 61.965598,32.444379 52.233103,47.985141 38.427423,68.055822 27.275539,90.992776 25.339859,115.57286 c -2.050711,24.61159 11.295937,48.18494 30.227317,63.10778 10.180421,7.95513 21.304022,15.15638 33.477058,19.54835 13.304596,-4.91301 25.559686,-12.78478 36.300666,-22.01913 17.10703,-14.41474 28.72138,-36.15073 27.51513,-58.88343 C 151.1254,87.669646 135.81283,60.98628 118.61942,37.538434 110.33164,26.017998 99.998722,16.113753 89.048828,7.1386719 Z m 6.152995,17.8164062 c 9.413231,8.725163 17.842761,19.112855 24.905601,29.769531 -8.58458,8.785206 -16.13186,17.44501 -24.905601,26.041016 -0.142977,-19.267782 -0.327856,-38.642759 0,-57.846323 0.687218,0.693363 -0.700024,1.355408 0,2.035776 z m -11.63216,7.724609 c 0.01072,16.264972 8e-4,32.529948 0,48.794922 C 74.647472,72.761385 66.786485,64.171163 58.573458,54.916834 66.0145,43.41988 83.235679,23.175781 83.235679,23.175781 c 0,0 -0.0078,6.522139 0,9.783203 z m 42.473301,31.609375 c 2.28602,6.256932 10.00863,13.306024 7.89564,19.593901 -13.26215,13.493786 -25.24606,26.93979 -38.736781,40.19321 -0.131069,-10.13078 -0.04046,-20.26174 0,-30.392579 10.339021,-10.371901 19.468471,-20.759393 29.847011,-31.091797 0.33137,0.565751 0.66279,1.131529 0.99413,1.697265 z m -70.749996,-0.06641 c 5.78117,5.475263 10.965288,11.407894 16.666122,16.748228 4.03117,4.746886 7.425584,8.895868 11.610573,13.472604 0.148811,0.02234 0,28.303289 0,28.303289 C 69.850447,109.63261 56.666487,96.239158 43.28125,82.845703 c 3.215927,-5.797859 6.555541,-17.2055 11.234727,-18.790428 l 0.323685,0.326367 0.119322,0.120311 z m 84.230466,29.099609 c 2.94656,7.142532 4.32809,16.344362 4.32809,16.344362 l -48.649701,46.69275 v -21.81212 c 0,0 29.427021,-28.53194 43.852861,-42.687878 0.15625,0.487623 0.3125,0.975276 0.46875,1.462886 z m -96.683591,1.541016 c 14.106922,13.845426 40.72982,41.787116 40.72982,41.787116 v 19.38019 c 0,0 -31.80312,-33.18243 -47.515736,-50.13875 1.568676,-3.57598 1.51659,-18.392223 6.671245,-11.140097 l 0.114667,0.111541 z m -8.439453,22.398446 c 16.61282,17.44963 32.522068,34.66008 49.169273,52.07617 0.735451,4.92652 0,16.69298 0,16.69298 0,0 -39.506628,-26.37067 -46.522677,-49.08684 -1.900439,-6.37865 -2.959538,-13.01163 -2.646596,-19.68231 z m 109.857424,0.57617 c 1.08804,22.32017 -12.25738,42.91931 -29.71644,55.7743 -5.85392,3.63687 -14.699518,12.52405 -19.339551,11.4893 v -16.01556 c 16.927921,-14.873 44.674761,-43.01248 49.730411,-46.5287 z"
       sodipodi:nodetypes="cccccccccccccccscccscccccccsccccccccccccccccccccccccccccccc" /><path
       style="fill:#ffffff;stroke-width:0.737345"
       d="m 86.007728,21.738127 c 0.479395,-0.30876 6.353496,-0.140185 6.547162,0.187891 0.09545,0.161703 0.06107,0.393019 -0.09864,0.663573 -0.20957,0.355015 -0.653994,0.415338 -3.060009,0.415338 -2.678157,0 -3.758906,-0.227967 -3.758906,-0.792879 0,-0.129449 0.166674,-0.342715 0.370393,-0.473923 z M 85.852622,68.72358 c 0.132814,-0.186727 1.246358,-0.255157 3.401085,-0.209003 3.19421,0.06842 3.203756,0.0703 3.251511,0.639935 l 0.04787,0.571316 h -3.366905 c -2.777863,0 -3.381268,-0.06339 -3.448983,-0.362313 -0.04515,-0.199272 0.0068,-0.487242 0.115399,-0.639935 z m 0.06285,117.06236 c 0.209446,-0.18989 1.344273,-0.26114 3.427484,-0.21522 l 3.11436,0.0686 v 0.62319 0.62318 l -3.179843,0.0115 c -2.762721,0.01 -3.212328,-0.0435 -3.427479,-0.40796 -0.230259,-0.39006 -0.225664,-0.43944 0.06548,-0.70339 z M 86.124469,45.001912 c 0.585848,-0.265965 5.958194,-0.177842 6.267754,0.10281 0.350625,0.317882 0.37818,0.895035 0.05286,1.106531 -0.130406,0.08477 -1.575068,0.154125 -3.210368,0.154125 -1.635308,0 -3.079973,-0.06936 -3.210379,-0.154125 -0.354269,-0.230299 -0.287772,-1.033227 0.10016,-1.209341 z m -0.242507,46.992832 c 0.05781,-0.09793 1.535794,-0.178056 3.284405,-0.178056 2.682009,0 3.209308,0.06126 3.371165,0.391638 0.383394,0.782585 -0.05648,0.889044 -3.386319,0.819552 -2.825853,-0.05897 -3.291362,-0.123539 -3.329744,-0.461818 -0.02453,-0.216292 0.0028,-0.473385 0.06049,-0.571316 z m 0.242507,23.305696 c 0.185488,-0.0772 1.686261,-0.1079 3.335052,-0.0683 l 2.997794,0.072 v 0.6348 0.63479 l -2.997794,0.072 c -3.344904,0.0803 -3.672303,0.0173 -3.672303,-0.70676 0,-0.30577 0.130253,-0.55234 0.337251,-0.63845 z m -0.237324,23.66035 c 0.152766,-0.25879 6.390184,-0.19376 6.635476,0.0692 0.178344,0.19117 0.181619,0.29922 0.01909,0.6309 -0.166712,0.34031 -0.651568,0.40023 -3.238199,0.40023 -1.673174,0 -3.148821,-0.0694 -3.279227,-0.15412 -0.243652,-0.15839 -0.314347,-0.64604 -0.137164,-0.94618 z m 3.272594,23.19116 h 3.393367 l -0.04787,0.57133 -0.04787,0.57131 h -3.297577 -3.297577 l -0.04787,-0.57131 -0.04787,-0.57133 z M 87.737886,19.077879 c 0.572439,-0.242766 2.997514,-0.04435 2.99735,0.245239 -1.93e-4,0.33485 -2.777844,0.474117 -3.113299,0.156096 -0.225376,-0.21366 -0.211241,-0.262576 0.115949,-0.401335 z m -0.07737,5.86677 c 0.137311,-0.08926 0.884922,-0.162295 1.661356,-0.162295 1.154908,0 1.411692,0.06928 1.411692,0.380877 0,0.31278 -0.261287,0.380182 -1.461426,0.376988 -1.451188,-0.0038 -2.133808,-0.256119 -1.611619,-0.59557 z m 0.243091,2.761424 c 0.753796,-0.236135 2.911303,-0.04789 2.868134,0.250255 -0.04821,0.332908 -3.040031,0.475568 -3.229853,0.154009 -0.09334,-0.158118 0.03546,-0.30206 0.361719,-0.404264 z m -0.294655,20.816189 c 0.375541,-0.244122 3.126141,-0.01945 3.126073,0.255336 -7.9e-5,0.342086 -3.00199,0.477813 -3.198677,0.144624 -0.100727,-0.170633 -0.07672,-0.302891 0.0726,-0.39996 z m -0.02232,5.840766 c 0.209542,-0.219383 3.159407,-0.189742 3.290935,0.03307 0.202447,0.342958 -0.5055,0.593218 -1.642874,0.580756 -1.384944,-0.01517 -2.000778,-0.244543 -1.648061,-0.613824 z m 0.0099,2.801196 c 0.383524,-0.250431 3.138543,-0.03397 3.138543,0.246584 0,0.336584 -2.778779,0.473327 -3.11527,0.153302 -0.228826,-0.217624 -0.231517,-0.263907 -0.02328,-0.399886 z m 0.176696,2.77941 c 0.628761,-0.266581 3.006692,-0.01607 3.073133,0.32375 0.04725,0.241702 -0.352015,0.317399 -1.674163,0.317399 -1.035076,0 -1.736221,-0.100588 -1.736221,-0.249081 0,-0.136994 0.151763,-0.313425 0.337251,-0.392068 z m -0.176696,3.060702 c 0.383524,-0.250431 3.138543,-0.03398 3.138543,0.246585 0,0.336583 -2.778779,0.473327 -3.11527,0.153302 -0.228826,-0.217625 -0.231517,-0.263907 -0.02328,-0.399887 z m 0.01241,2.784345 c 0.375541,-0.244123 3.126141,-0.01945 3.126073,0.255336 -7.9e-5,0.342087 -3.00199,0.477814 -3.198677,0.144624 -0.100727,-0.170633 -0.07672,-0.302891 0.0726,-0.39996 z m -0.04498,20.845613 c 0.255118,-0.267102 2.783871,-0.396778 3.015167,-0.154621 0.416799,0.436376 -0.05036,0.71349 -1.250983,0.742086 -1.290789,0.03074 -2.09794,-0.238034 -1.764184,-0.587465 z m 0.03257,8.617619 c 0.383524,-0.25043 3.138543,-0.03397 3.138543,0.246584 0,0.336585 -2.778779,0.473328 -3.11527,0.153303 -0.228826,-0.217625 -0.231517,-0.263908 -0.02328,-0.399887 z m 0.170566,2.782017 c 0.633435,-0.268578 3.012471,-0.02046 3.079263,0.321144 0.04713,0.241082 -0.335252,0.317398 -1.59037,0.317398 -1.548332,0 -2.26748,-0.308422 -1.488893,-0.638542 z m -0.170566,3.0581 c 0.383524,-0.25043 3.138543,-0.034 3.138543,0.24658 0,0.33658 -2.778779,0.47333 -3.11527,0.1533 -0.228826,-0.21762 -0.231517,-0.26391 -0.02328,-0.39988 z m 0.01241,2.78434 c 0.375541,-0.24412 3.126141,-0.0194 3.126073,0.25534 -7.9e-5,0.34208 -3.00199,0.47781 -3.198677,0.14462 -0.100727,-0.17063 -0.07672,-0.30289 0.0726,-0.39996 z m 0.142608,8.63749 c 0.562276,-0.23843 2.983845,-0.0346 2.983613,0.25106 -2.72e-4,0.33707 -3.001849,0.4783 -3.195443,0.15035 -0.09621,-0.16299 -0.02294,-0.30186 0.21183,-0.40141 z m -0.155015,6.35243 c 0.383524,-0.25043 3.138543,-0.034 3.138543,0.24658 0,0.33658 -2.778779,0.47333 -3.11527,0.1533 -0.228826,-0.21763 -0.231517,-0.2639 -0.02328,-0.39988 z m 0.09524,5.74569 c 0.17823,-0.16158 0.935545,-0.29379 1.682924,-0.29379 1.078995,0 1.358858,0.0749 1.358858,0.36345 0,0.28433 -0.311866,0.38107 -1.432568,0.44436 -1.654853,0.0935 -2.116578,-0.054 -1.609214,-0.51402 z m -0.09524,2.88751 c 0.383524,-0.25043 3.138543,-0.034 3.138543,0.24659 0,0.33658 -2.778779,0.47333 -3.11527,0.1533 -0.228826,-0.21762 -0.231517,-0.26391 -0.02328,-0.39989 z m 0,5.84012 c 0.383524,-0.25043 3.138543,-0.034 3.138543,0.24658 0,0.33658 -2.778779,0.47333 -3.11527,0.1533 -0.228826,-0.21763 -0.231517,-0.2639 -0.02328,-0.39988 z m 0.01241,2.78434 c 0.375541,-0.24412 3.126141,-0.0195 3.126073,0.25534 -7.9e-5,0.34208 -3.00199,0.47781 -3.198677,0.14462 -0.100727,-0.17063 -0.07672,-0.30289 0.0726,-0.39996 z m 0.165971,8.66697 c 0.184565,-0.0838 0.807723,-0.15236 1.384796,-0.15236 1.170272,0 1.761752,0.19126 1.638257,0.52976 -0.04515,0.12378 -0.78237,0.22505 -1.638257,0.22505 -1.481573,0 -2.109763,-0.27329 -1.384796,-0.60245 z m -0.165971,20.78751 c 0.375541,-0.24413 3.126141,-0.0195 3.126073,0.25534 -7.9e-5,0.34209 -3.00199,0.47782 -3.198677,0.14462 -0.100727,-0.17063 -0.07672,-0.30289 0.0726,-0.39996 z m -0.07723,5.89095 c 0.05726,-0.097 0.84045,-0.17638 1.740413,-0.17638 1.242236,0 1.621341,0.0765 1.574185,0.3174 -0.0426,0.21784 -0.517844,0.34022 -1.514922,0.39014 -1.366792,0.0684 -2.036881,-0.12933 -1.799676,-0.53116 z m 0.07723,2.74226 c 0.375541,-0.24412 3.126141,-0.0195 3.126073,0.25534 -7.9e-5,0.34208 -3.00199,0.47781 -3.198677,0.14462 -0.100727,-0.17064 -0.07672,-0.30289 0.0726,-0.39996 z m 0.164289,2.8276 c 0.543342,-0.24667 2.715091,-0.17494 2.960323,0.0978 0.199854,0.22226 0.199854,0.27901 0,0.51084 -0.123659,0.14345 -0.418755,0.20058 -0.655766,0.12696 -0.237018,-0.0736 -0.928383,-0.13385 -1.536371,-0.13385 -1.075916,0 -1.449322,-0.29249 -0.768186,-0.60171 z m -0.164289,3.01251 c 0.375541,-0.24412 3.126141,-0.0195 3.126073,0.25534 -7.9e-5,0.34209 -3.00199,0.47782 -3.198677,0.14462 -0.100727,-0.17063 -0.07672,-0.30288 0.0726,-0.39996 z m 0.142608,2.79738 c 0.562276,-0.23843 2.983845,-0.0346 2.983613,0.25106 -2.72e-4,0.33707 -3.001849,0.4783 -3.195443,0.15035 -0.09621,-0.16299 -0.02294,-0.30186 0.21183,-0.40141 z m 0.03298,-169.638127 c 0.356988,-0.232066 3.024022,0.0078 3.024022,0.272003 0,0.149062 -0.665391,0.283679 -1.611314,0.325988 -1.066676,0.04771 -1.611316,-0.01935 -1.611316,-0.198408 0,-0.148762 0.08937,-0.328575 0.198608,-0.399583 z m 1.398477,2.992786 c 2.101794,0.0935 2.124211,0.58015 0.02674,0.58015 -1.107879,0 -1.541403,-0.08906 -1.588073,-0.326232 -0.05019,-0.2552 0.289744,-0.310487 1.56135,-0.253918 z m -0.02323,14.418678 c 1.299046,0 1.573845,0.06651 1.573845,0.380876 0,0.310086 -0.248456,0.380877 -1.336747,0.380877 -1.36396,0 -1.810939,-0.132049 -1.810939,-0.535002 0,-0.124713 0.708232,-0.226751 1.573841,-0.226751 z m -1.400301,2.918264 c 0.38026,-0.247191 3.052296,-0.02038 3.01238,0.25571 -0.04929,0.34076 -2.890959,0.474284 -3.085353,0.144974 -0.101003,-0.171102 -0.07694,-0.303233 0.07297,-0.400684 z m 1.400301,2.921848 c 1.299046,0 1.573845,0.06651 1.573845,0.380877 0,0.310085 -0.248456,0.380877 -1.336747,0.380877 -1.36396,0 -1.810939,-0.132049 -1.810939,-0.535002 0,-0.124714 0.708232,-0.226752 1.573841,-0.226752 z m -1.393973,3.097798 c 0.114107,-0.193304 0.689492,-0.304701 1.573841,-0.304701 1.29405,0 1.393977,0.0364 1.393977,0.507836 0,0.475592 -0.09993,0.507836 -1.573845,0.507836 -1.547368,0 -1.752044,-0.10439 -1.393973,-0.710971 z m 0.05342,2.645009 c 0.382419,-0.248594 2.887605,-0.181609 2.982961,0.07976 0.160091,0.438807 -0.287585,0.636896 -1.589067,0.70313 -0.949453,0.04832 -1.340999,-0.02654 -1.465252,-0.28017 -0.129975,-0.265302 -0.113314,-0.382672 0.07136,-0.50272 z m -0.03467,9.093307 c 0.356989,-0.232067 3.024022,0.0079 3.024022,0.272003 0,0.149062 -0.66539,0.283679 -1.611313,0.325988 -1.066677,0.04771 -1.611317,-0.01936 -1.611317,-0.198408 0,-0.148763 0.08937,-0.328575 0.198608,-0.399583 z m 1.362748,23.251575 c 1.32621,0 1.58633,0.06391 1.58633,0.38976 0,0.329592 -0.23529,0.378589 -1.524195,0.317397 -1.054423,-0.05006 -1.543352,-0.170187 -1.586339,-0.389759 -0.04708,-0.240555 0.321921,-0.317398 1.524204,-0.317398 z m -1.45194,6.15751 c 0.04645,-0.225337 0.499773,-0.317397 1.562852,-0.317397 1.345364,0 1.492283,0.04511 1.447002,0.444356 -0.04255,0.375388 -0.253469,0.456344 -1.358796,0.521592 -1.339379,0.07906 -1.766513,-0.08871 -1.651058,-0.648551 z m 1.301582,2.597806 c 1.455528,-0.184863 1.736688,-0.09943 1.736688,0.527675 0,0.295345 -0.303447,0.365891 -1.573844,0.365891 -1.252635,0 -1.573842,-0.0729 -1.573842,-0.35718 0,-0.268976 0.348445,-0.401435 1.410998,-0.536386 z m -1.311071,5.887285 c 0.05495,-0.0931 0.76319,-0.169279 1.573842,-0.169279 1.37399,0 1.473917,0.03443 1.473917,0.507836 0,0.469874 -0.09993,0.507836 -1.336747,0.507836 -1.611923,0 -2.075325,-0.229235 -1.711012,-0.846393 z m 0.208222,17.473511 c 0.169484,-0.0911 0.877716,-0.0853 1.573848,0.0129 0.926104,0.13069 1.265689,0.27274 1.265689,0.52945 0,0.27044 -0.283387,0.35005 -1.236589,0.34737 -1.297229,-0.004 -1.911097,-0.16966 -1.911097,-0.51687 0,-0.11395 0.138666,-0.28174 0.308149,-0.37287 z m 1.253207,2.92456 c 1.32621,0 1.58633,0.0639 1.58633,0.38976 0,0.3296 -0.23529,0.37859 -1.524195,0.3174 -1.054423,-0.0501 -1.543352,-0.17019 -1.586339,-0.38976 -0.04708,-0.24055 0.321921,-0.3174 1.524204,-0.3174 z m -1.448937,12.10366 c 0.06183,-0.063 0.751349,-0.15536 1.532265,-0.20543 1.257583,-0.0806 1.42586,-0.0402 1.472416,0.35332 0.04742,0.40079 -0.102805,0.44435 -1.532268,0.44435 -1.391589,0 -1.866678,-0.19109 -1.472413,-0.59224 z m 0.124673,8.61782 c 0.130405,-0.0847 0.765665,-0.15412 1.411699,-0.15412 1.21122,0 1.648783,0.14198 1.648783,0.535 0,0.12471 -0.741955,0.22675 -1.648783,0.22675 -1.512607,0 -2.01426,-0.21592 -1.411699,-0.60763 z m -0.135867,11.69318 c 0.05427,-0.0918 0.761892,-0.16707 1.572544,-0.16707 1.37399,0 1.473917,0.0345 1.473917,0.50783 0,0.47173 -0.09993,0.50783 -1.405601,0.50783 -0.993018,0 -1.454602,-0.10001 -1.572544,-0.34075 -0.09181,-0.18742 -0.12256,-0.41595 -0.06832,-0.50784 z m 0.0028,5.83541 c 0.05274,-0.0894 0.759117,-0.16238 1.569769,-0.16238 1.210222,0 1.473917,0.0681 1.473917,0.38088 0,0.31302 -0.265491,0.38088 -1.490052,0.38088 -1.364792,0 -1.806792,-0.17052 -1.553634,-0.59938 z m 0.223104,2.75524 c 0.191624,-0.0815 0.887052,-0.11426 1.545397,-0.0728 1.009388,0.0635 1.205,0.14636 1.248111,0.52875 0.04679,0.41519 -0.07854,0.44734 -1.485094,0.38088 -1.038119,-0.049 -1.555776,-0.17246 -1.596519,-0.38062 -0.03314,-0.16941 0.09649,-0.37469 0.288105,-0.45616 z m 1.235747,2.9225 c 1.493989,0 1.584835,0.0296 1.584835,0.51671 0,0.49075 -0.07714,0.51309 -1.534614,0.44436 -1.322349,-0.0624 -1.541561,-0.13382 -1.584832,-0.51672 -0.04526,-0.40054 0.10604,-0.44435 1.534611,-0.44435 z m -1.462924,3.21629 c 0.05495,-0.0931 0.76319,-0.16928 1.573842,-0.16928 1.210222,0 1.473917,0.0681 1.473917,0.38088 0,0.31438 -0.274799,0.38088 -1.573845,0.38088 -1.441158,0 -1.750304,-0.12427 -1.473914,-0.59248 z m 0.428766,2.51232 c 0.816288,-0.25942 2.618993,0.10208 2.618993,0.52519 0,0.50217 -2.737191,0.49913 -2.983346,-0.003 -0.139584,-0.28492 -0.07067,-0.38363 0.364353,-0.52188 z m -0.330085,9.1075 c 0.356988,-0.23206 3.024022,0.008 3.024022,0.27201 0,0.14906 -0.665391,0.28367 -1.611314,0.32598 -1.066676,0.0477 -1.611316,-0.0194 -1.611316,-0.1984 0,-0.14876 0.08937,-0.32858 0.198608,-0.39959 z m 0.03847,20.6126 c 0.130406,-0.0847 0.843578,-0.15412 1.584838,-0.15412 1.202716,0 1.34235,0.0478 1.297646,0.44436 -0.04181,0.37116 -0.247249,0.45676 -1.247074,0.51964 -1.258101,0.0791 -1.872501,-0.0632 -1.872501,-0.43383 0,-0.12206 0.106691,-0.29128 0.237091,-0.37605 z M 88.968679,71.701526 c 1.394198,-0.136724 1.765004,-0.03879 1.765004,0.466137 0,0.275653 -0.322635,0.351262 -1.498895,0.351262 -1.17002,0 -1.498904,-0.07641 -1.498904,-0.348252 0,-0.25703 0.322924,-0.37992 1.232795,-0.469147 z m 0.266109,5.64184 c 1.398967,0 1.498895,0.03386 1.498895,0.507835 0,0.47398 -0.09993,0.507836 -1.498895,0.507836 -1.398976,0 -1.498904,-0.03386 -1.498904,-0.507836 0,-0.473979 0.09993,-0.507835 1.498904,-0.507835 z m 0,114.263074 c 1.367769,0 1.515788,0.0447 1.470359,0.44435 -0.04385,0.3859 -0.237301,0.44436 -1.470359,0.44436 -1.233067,0 -1.426497,-0.0584 -1.470368,-0.44436 -0.04543,-0.39962 0.10259,-0.44435 1.470368,-0.44435 z"
       id="path8"
       sodipodi:nodetypes="ssssssssccsssscccccsscccssssccssssssscsccccsccsscscsscccccccccssssssscssssssssssssssssssssssssssssssssssssssssssssssssssssssssssssssssssssssscsssssssssssssssssssssssssssscsssssssssssssssssssssssssssscscccsssssscssssssssssssssssssssssssssssssscssssssssssssscscssssscssccssccssscssssssssssssccscsccsscssssssscscccssssscsssscsssssssssssssss" /></g></svg>
